<?xml version="1.0" standalone="no"?><!DOCTYPE svg PUBLIC "-//W3C//DTD SVG 1.1//EN" "http://www.w3.org/Graphics/SVG/1.1/DTD/svg11.dtd"><svg t="1645101663414" class="icon" viewBox="0 0 1024 1024" version="1.1" xmlns="http://www.w3.org/2000/svg" p-id="9714" xmlns:xlink="http://www.w3.org/1999/xlink" width="500" height="500"><defs><style type="text/css"></style></defs><path d="M896 627.712c-48.128 0-87.04 38.912-87.04 86.016 0 48.128 38.912 86.016 87.04 86.016s87.04-38.912 87.04-86.016c0-47.104-38.912-86.016-87.04-86.016z m-405.504-588.8c-48.128 0-87.04 38.912-87.04 86.016 0 48.128 38.912 86.016 87.04 86.016s87.04-38.912 87.04-86.016c0-48.128-38.912-86.016-87.04-86.016zM128 627.712c-48.128 0-87.04 38.912-87.04 86.016 0 48.128 38.912 86.016 87.04 86.016s87.04-38.912 87.04-86.016c0-47.104-38.912-86.016-87.04-86.016z m637.952 236.544c-71.68 54.272-157.696 82.944-247.808 82.944-103.424 0-201.728-37.888-278.528-107.52-8.192-7.168-20.48-6.144-27.648 1.024-3.072 4.096-5.12 8.192-5.12 13.312s2.048 10.24 6.144 13.312c82.944 75.776 191.488 117.76 304.128 117.76 50.176 0 98.304-8.192 145.408-23.552 45.056-15.36 87.04-37.888 125.952-66.56 4.096-3.072 7.168-7.168 7.168-12.288 1.024-5.12-1.024-10.24-4.096-14.336-5.12-8.192-17.408-10.24-25.6-4.096zM306.176 180.224c4.096-3.072 7.168-7.168 9.216-12.288 1.024-5.12 0-10.24-2.048-14.336-5.12-9.216-17.408-12.288-26.624-6.144-65.536 38.912-120.832 95.232-158.72 161.792-38.912 68.608-60.416 146.432-60.416 225.28 0 10.24 8.192 19.456 19.456 19.456s19.456-8.192 19.456-19.456C105.472 388.096 180.224 256 306.176 180.224z m587.776 105.472c-48.128-71.68-114.688-129.024-192.512-163.84-9.216-4.096-21.504 0-25.6 9.216-2.048 5.12-2.048 10.24 0 14.336 2.048 5.12 5.12 8.192 10.24 10.24 148.48 66.56 244.736 214.016 244.736 377.856 0 10.24 8.192 19.456 19.456 19.456s19.456-8.192 19.456-19.456c-1.024-88.064-26.624-174.08-75.776-247.808z" p-id="9715" fill="#1DAAFF"></path></svg>